<?xml version="1.0" encoding="UTF-8"?>
<svg width="26px" height="25px" viewBox="0 0 26 25" version="1.1" xmlns="http://www.w3.org/2000/svg" xmlns:xlink="http://www.w3.org/1999/xlink">
    <title>close-blue</title>
    <g id="close-blue" stroke="none" stroke-width="1" fill="none" fill-rule="evenodd">
        <rect id="Rectangle" fill="#FFFFFF" x="3" y="3" width="20" height="19"></rect>
        <g id="close-svgrepo-com" fill="#1F8EC1" fill-rule="nonzero">
            <path d="M23.9620739,0 L2.03775947,0 C0.914200501,0 0,0.879082927 0,1.96062812 L0,23.0394788 C0,24.1202221 0.914200501,25 2.03775947,25 L23.9620739,25 C25.0859106,25 26,24.1202221 26,23.0394788 L26,1.96062812 C25.9996667,0.879082927 25.0859106,0 23.9620739,0 Z M21.1778118,17.4661262 C21.9684191,18.2273779 21.9684191,19.461398 21.1778118,20.2210458 C20.7825359,20.6011638 20.2637779,20.7920781 19.7462975,20.7920781 C19.2282062,20.7920781 18.7107258,20.6012172 18.3161165,20.2210458 L12.9997778,15.1049575 L7.68332806,20.220725 C7.28866319,20.600843 6.77123837,20.7917574 6.25342472,20.7917574 C5.73533333,20.7917574 5.21757522,20.6008965 4.82224378,20.220725 C4.03146979,19.4607564 4.03146979,18.2270571 4.82224378,17.4661262 L10.136916,12.3503586 L4.82224378,7.23378912 C4.03146979,6.4726978 4.03146979,5.23947966 4.82224378,4.47935067 C5.61251784,3.71841974 6.89255407,3.71841974 7.68327252,4.47935067 L12.9997223,9.59527862 L18.3160609,4.47935067 C19.1066127,3.71841974 20.3871489,3.71841974 21.1777562,4.47935067 C21.9683636,5.23947966 21.9683636,6.4726978 21.1777562,7.23378912 L15.8628063,12.3503586 L21.1778118,17.4661262 Z" id="Shape"></path>
        </g>
    </g>
</svg>