<?xml version="1.0" encoding="UTF-8"?>
<svg width="29px" height="28px" viewBox="0 0 29 28" version="1.1" xmlns="http://www.w3.org/2000/svg" xmlns:xlink="http://www.w3.org/1999/xlink">
    <title>collectionBox</title>
    <g id="Home" stroke="none" stroke-width="1" fill="none" fill-rule="evenodd">
        <g id="Artboard" transform="translate(-234.000000, -825.000000)" fill="#000000" fill-rule="nonzero">
            <g id="collectionBox" transform="translate(234.000000, 825.000000)">
                <path d="M26.875396,8 L2.12460401,8 C1.50706546,8.00890893 1.00851898,8.53027552 1,9.17608083 L1,26.8239192 C1.00851898,27.4697245 1.50706546,27.9910911 2.12460401,28 L26.875396,28 C27.4929345,27.9910911 27.991481,27.4697245 28,26.8239192 L28,9.17608083 C27.991481,8.53027552 27.4929345,8.00890893 26.875396,8 L26.875396,8 Z M17.5411827,13.5325493 C17.334791,13.758609 17.0480661,13.8851454 16.749208,13.8820606 L12.250792,13.8820606 C11.6292529,13.8820606 11.125396,13.3551405 11.125396,12.7051516 C11.125396,12.0551626 11.6292529,11.5282425 12.250792,11.5282425 L16.750792,11.5282425 C17.20667,11.5244376 17.619117,11.8104199 17.7932232,12.2510431 C17.9673295,12.6916663 17.8682342,13.1987053 17.5427666,13.5325493 L17.5411827,13.5325493 Z" id="Path_87"></path>
                <path d="M28.6686386,0.346518844 C28.4639191,0.122595337 28.1797406,-0.00280615968 27.883499,0 L1.11652071,0 C0.820241882,-0.00300322809 0.53599153,0.122429979 0.331381142,0.346518844 C0.117081617,0.560475965 -0.00287203185,0.857711054 0,1.16752409 L0,5.83247591 C-0.00268357239,6.14225005 0.117239751,6.43940999 0.331381142,6.65348116 C0.53599153,6.87757002 0.820241882,7.00300323 1.11652071,7 L27.8850693,7 C28.4972782,6.99111412 28.991522,6.47429294 29,5.83411792 L29,1.16588208 C29.0022688,0.856676962 28.8823805,0.560197965 28.6686386,0.346518844 Z" id="Path_88"></path>
            </g>
        </g>
    </g>
</svg>