<?xml version="1.0" encoding="UTF-8"?>
<svg width="32px" height="31px" viewBox="0 0 32 31" version="1.1" xmlns="http://www.w3.org/2000/svg" xmlns:xlink="http://www.w3.org/1999/xlink">
    <title>collectionBox</title>
    <g id="Home" stroke="none" stroke-width="1" fill="none" fill-rule="evenodd">
        <g id="Artboard" transform="translate(-238.000000, -824.000000)" stroke="#000000" stroke-width="3">
            <g id="Group" transform="translate(234.000000, 819.000000)">
                <g id="collectionBox" transform="translate(6.000000, 7.000000)" fill-rule="nonzero">
                    <path d="M2.08295201,7 C1.48828526,7.00890893 1.00820347,7.53027552 1,8.17608083 L1,25.8239192 C1.00820347,26.4697245 1.48828526,26.9910911 2.08295201,27 L25.917048,27 C26.5117147,26.9910911 26.9917965,26.4697245 27,25.8239192 L27,8.17608083 C26.9917965,7.53027552 26.5117147,7.00890893 25.917048,7 L2.08295201,7 Z" id="Path_87"></path>
                    <path d="M27.6800648,0.346518844 C27.4824047,0.122595337 27.2080254,-0.00280615968 26.921999,0 L1.07802,0 C0.791957679,-0.00300322809 0.517509064,0.122429979 0.319954206,0.346518844 C0.11304432,0.560475965 -0.00277299627,0.857711054 0,1.16752409 L0,5.83247591 C-0.00259103541,6.14225005 0.113197001,6.43940999 0.319954206,6.65348116 C0.517509064,6.87757002 0.791957679,7.00300323 1.07802,7 L26.9235152,7 C27.5146134,6.99111412 27.9918144,6.47429294 28,5.83411792 L28,1.16588208 C28.0021905,0.856676962 27.8864363,0.560197965 27.6800648,0.346518844 Z" id="Path_88"></path>
                </g>
                <line x1="17.1154126" y1="18.9420835" x2="23.3462378" y2="19.8262504" id="Line" stroke-linecap="round" transform="translate(20.115413, 19.442083) rotate(-8.398705) translate(-20.115413, -19.442083) "></line>
            </g>
        </g>
    </g>
</svg>